<?xml version="1.0" encoding="iso-8859-1"?>
<!-- Generator: Adobe Illustrator 19.0.0, SVG Export Plug-In . SVG Version: 6.00 Build 0)  -->
<svg version="1.1" id="Capa_1" xmlns="http://www.w3.org/2000/svg" xmlns:xlink="http://www.w3.org/1999/xlink" x="0px" y="0px"
	 viewBox="0 0 512 512" style="enable-background:new 0 0 512 512;" xml:space="preserve">
<g>
	<g>
		<path d="M256,0c-33.091,0-61,27.909-61,61s27.909,60,61,60s60-26.909,60-60S289.091,0,256,0z"/>
	</g>
</g>
<g>
	<g>
		<path d="M421,271c-33.091,0-60,26.909-60,60c0,32.884,26.96,61.155,62.335,59.764C447.049,394.539,481,366.51,481,331
			C481,297.909,454.091,271,421,271z"/>
	</g>
</g>
<g>
	<g>
		<path d="M90,271c-33.091,0-60,26.909-60,60c0,35.414,33.071,62.384,56.896,59.687C122.761,392.564,150,364.041,150,331
			C150,297.909,123.091,271,90,271z"/>
	</g>
</g>
<g>
	<g>
		<path d="M487.592,391c-16.485,18.279-40.097,30-66.592,30s-50.107-11.721-66.592-30C340.016,406.959,331,428.866,331,452v15
			c0,8.291,6.709,15,15,15h150c8.291,0,16-6.709,16-15v-15C512,428.866,501.984,406.959,487.592,391z"/>
	</g>
</g>
<g>
	<g>
		<path d="M322.592,121c-16.485,18.279-40.096,30-66.592,30c-26.496,0-51.107-11.721-67.592-30C174.016,136.959,165,157.866,165,181
			v15c0,8.291,6.709,15,15,15h151c8.291,0,15-6.709,15-15v-15C346,157.866,336.984,136.959,322.592,121z"/>
	</g>
</g>
<g>
	<g>
		<path d="M156.592,391c-16.485,18.279-40.096,30-66.592,30c-26.496,0-50.107-11.721-66.592-30C9.016,406.959,0,428.866,0,452v15
			c0,8.291,6.709,15,15,15h150c8.291,0,15-6.709,15-15v-15C180,428.866,170.984,406.959,156.592,391z"/>
	</g>
</g>
<g>
	<g>
		<path d="M135,181c0-6.718,0.734-13.361,1.866-19.92c-27.552,21.116-48.972,49.371-62.151,81.465C79.706,241.683,84.765,241,90,241
			c6.015,0,11.88,0.645,17.569,1.776c7.354-14.703,16.804-28.217,28.103-40.128C135.344,200.462,135,198.276,135,196V181z"/>
	</g>
</g>
<g>
	<g>
		<path d="M374.134,161.08C375.266,167.639,376,174.282,376,181v15c0,2.276-0.344,4.462-0.672,6.649
			c11.299,11.911,20.75,25.424,28.103,40.128C409.12,241.645,414.985,241,421,241c5.235,0,10.294,0.683,15.286,1.545
			C423.106,210.451,401.686,182.196,374.134,161.08z"/>
	</g>
</g>
<g>
	<g>
		<path d="M301.817,475.088c-29.813,8.392-62.82,8.39-92.633-0.002c-1.956,10.693-7.751,19.949-15.842,26.578
			C213.109,508.276,234.813,512,256,512s41.891-3.724,61.659-10.336C309.569,495.035,303.772,485.781,301.817,475.088z"/>
	</g>
</g>
<g>
</g>
<g>
</g>
<g>
</g>
<g>
</g>
<g>
</g>
<g>
</g>
<g>
</g>
<g>
</g>
<g>
</g>
<g>
</g>
<g>
</g>
<g>
</g>
<g>
</g>
<g>
</g>
<g>
</g>
</svg>
