<svg height="618pt" viewBox="-19 -34 618.66669 618" width="618pt" xmlns="http://www.w3.org/2000/svg"><path d="m455 128.015625c-2.242188 1.277344-4.890625 1.640625-7.386719.996094l-40-10 2.386719-9.679688-12.191406-2.996093c-14.378906 63.339843-95.996094 173.894531-99.777344 179-1.890625 2.539062-4.867188 4.035156-8.03125 4.035156s-6.140625-1.496094-8.03125-4.035156c-4.160156-5.652344-101.96875-138.140626-101.96875-196.003907.019531-12.257812 2.105469-24.425781 6.164062-36l-16.164062-4-2.429688 9.703125-36.101562-9.003906-131.46875 75.101562v417l125-71.4375c2.242188-1.273437 4.886719-1.636718 7.386719-1l316.105469 79 131.507812-75.164062v-416.957031zm-195 191.316406h-20v-20h20zm50 0h-40v-20h40zm30 0h-20v-20h20zm0 0"/><path d="m330 89.332031c.070312-18.34375-12.390625-34.367187-30.191406-38.820312-17.796875-4.449219-36.335938 3.820312-44.90625 20.042969-3.167969 5.757812-4.855469 12.210937-4.902344 18.777343 0 22.089844 17.910156 40 40 40s40-17.910156 40-40zm0 0"/><path d="m378.417969 101.433594c.933593-3.96875 1.464843-8.023438 1.582031-12.101563 0-49.707031-40.292969-90-90-90s-90 40.292969-90 90c0 38.894531 59 129.542969 90 173 28.160156-39.46875 79.21875-117.710937 88.417969-160.898437zm-148.417969-12.101563c0-33.132812 26.867188-60 60-60s60 26.867188 60 60c0 1.671875-.121094 3.3125-.25 4.941407-2.90625 31.847656-30.273438 55.816406-62.226562 54.503906-31.953126-1.320313-57.253907-27.464844-57.523438-59.445313zm0 0"/></svg>