<?xml version="1.0"?>
<svg xmlns="http://www.w3.org/2000/svg" viewBox="0 0 64 64" width="512" height="512"><g id="Outlines"><g><path d="M8,20H18a1,1,0,0,0,1-1V7a1,1,0,0,0-1-1H8A1,1,0,0,0,7,7V19A1,1,0,0,0,8,20ZM9,8h8V18H9Z"/><path d="M14,10H12a1,1,0,0,0,0,2h2a1,1,0,0,0,0-2Z"/><path d="M14,14H12a1,1,0,0,0,0,2h2a1,1,0,0,0,0-2Z"/><path d="M61,8a1,1,0,0,0,1-1V3a1,1,0,0,0-1-1H45a1,1,0,0,0-1,1v9H32a1,1,0,0,0-1,1V24H18a1,1,0,0,0-1,1V41a1,1,0,0,0,1,1H31v9H18V47a1,1,0,0,0-1-1H3a1,1,0,0,0-1,1V61a1,1,0,0,0,1,1H6a1,1,0,0,0,0-2H4V48H16V60H10a1,1,0,0,0,0,2h7a1,1,0,0,0,1-1V53H32a1,1,0,0,0,1-1V42H46a1,1,0,0,0,1-1V25a1,1,0,0,0-1-1H43a1,1,0,0,0,0,2h2v6H19V26H39a1,1,0,0,0,0-2H33V14H44v2a.32.32,0,0,0,.007.033.974.974,0,0,0,.061.3c.011.029.02.057.033.085s.014.042.024.062a1.051,1.051,0,0,0,.165.218c.006.006.013.009.019.015a1.025,1.025,0,0,0,.263.178.833.833,0,0,0,.082.034A.988.988,0,0,0,45,17H61a1,1,0,0,0,1-1V11a1,1,0,0,0-2,0v3.4l-3.219-4.025a1,1,0,0,0-1.562,0l-1.434,1.794-2.937-4.7a1.039,1.039,0,0,0-1.7,0L46,12.513V4H60V7A1,1,0,0,0,61,8ZM45,34v6H19V34ZM56,12.6,57.92,15H55.554l-.646-1.034ZM50,9.887,53.2,15H46.8Z"/><circle cx="56" cy="7" r="1"/><path d="M14,54a1,1,0,0,0-.553-.9l-6-3A1,1,0,0,0,6,51v6a1,1,0,0,0,1.447.9l6-3A1,1,0,0,0,14,54ZM8,55.382V52.618L10.764,54Z"/><path d="M55.757,42.03l-8,2A1,1,0,0,0,47,45v8.184A2.966,2.966,0,0,0,46,53a3,3,0,1,0,3,3V49.781l6-1.5v2.9A2.966,2.966,0,0,0,54,51a3,3,0,1,0,3,3V43a1,1,0,0,0-1.243-.97ZM46,57a1,1,0,1,1,1-1A1,1,0,0,1,46,57Zm3-11.219,6-1.5v1.938l-6,1.5ZM54,55a1,1,0,1,1,1-1A1,1,0,0,1,54,55Z"/><path d="M40.279,57.646a26.01,26.01,0,0,1-18.635-.8,1,1,0,1,0-.8,1.834,28.012,28.012,0,0,0,20.07.857,1,1,0,0,0-.637-1.9Z"/><path d="M6.831,43.771a1,1,0,0,0,.932-1.363A25.984,25.984,0,0,1,7.85,23.371a1,1,0,0,0-1.858-.742,28,28,0,0,0-.094,20.5A1,1,0,0,0,6.831,43.771Z"/><path d="M22,8.921a1.01,1.01,0,0,0,.371-.071A26.154,26.154,0,0,1,40.9,8.565a1,1,0,1,0,.684-1.879,28.167,28.167,0,0,0-19.958.306A1,1,0,0,0,22,8.921Z"/><path d="M55.616,19.879a1,1,0,0,0-.438,1.345A25.712,25.712,0,0,1,58,33a26.149,26.149,0,0,1-.5,5.062,1,1,0,0,0,.788,1.175.989.989,0,0,0,.194.019,1,1,0,0,0,.98-.806A28.174,28.174,0,0,0,60,33a27.681,27.681,0,0,0-3.04-12.683A1,1,0,0,0,55.616,19.879Z"/><circle cx="33" cy="37" r="1"/><circle cx="37" cy="37" r="1"/><circle cx="41" cy="37" r="1"/><path d="M22,38h6a1,1,0,0,0,0-2H22a1,1,0,0,0,0,2Z"/><circle cx="33" cy="29" r="1"/><circle cx="37" cy="29" r="1"/><circle cx="41" cy="29" r="1"/><path d="M22,28a1,1,0,0,0,0,2h6a1,1,0,0,0,0-2Z"/></g></g></svg>
